<svg width="48" height="48" viewBox="0 0 100 100" xmlns="http://www.w3.org/2000/svg">
  <defs>
    <linearGradient id="shieldGrad" x1="0%" y1="0%" x2="100%" y2="100%">
      <stop offset="0%" stop-color="#1A73E8"/>
      <stop offset="100%" stop-color="#1557B0"/>
    </linearGradient>
    <linearGradient id="pulseGrad" x1="0%" y1="0%" x2="100%" y2="0%">
      <stop offset="0%" stop-color="#00C853"/>
      <stop offset="100%" stop-color="#69F0AE"/>
    </linearGradient>
  </defs>
  <path d="M50 4 L88 20 C88 20 90 55 75 75 C65 88 50 96 50 96 C50 96 35 88 25 75 C10 55 12 20 12 20 Z" fill="url(#shieldGrad)"/>
  <rect x="40" y="25" width="20" height="36" rx="4" fill="#FFFFFF"/>
  <rect x="32" y="35" width="36" height="16" rx="4" fill="#FFFFFF"/>
  <path d="M16 74 L32 74 L37 64 L43 84 L50 58 L56 80 L60 68 L64 74 L84 74" fill="none" stroke="url(#pulseGrad)" stroke-width="3.5" stroke-linecap="round" stroke-linejoin="round"/>
  <circle cx="84" cy="74" r="4" fill="#00C853"/>
</svg>
